<?xml version="1.0" encoding="utf-8"?>
<!-- Generator: Adobe Illustrator 22.1.0, SVG Export Plug-In . SVG Version: 6.00 Build 0)  -->
<svg version="1.1" id="Layer_1" xmlns="http://www.w3.org/2000/svg" xmlns:xlink="http://www.w3.org/1999/xlink" x="0px" y="0px"
	 viewBox="0 0 513 513" style="enable-background:new 0 0 513 513;" xml:space="preserve">
<style type="text/css">
	.st0{fill:none;stroke:#FF0029;stroke-width:6.23;stroke-miterlimit:10;}
	.st1{fill:#FF0029;}
	.st2{fill:#00748E;}
	.st3{font-family:'DroidSerif-Bold';}
	.st4{font-size:23.62px;}
</style>
<title>hgsdadsdv</title>
<g id="Layer_1_1_">
	<path class="st0" d="M111.6,359.6c-33.7-37.3-52.3-85.8-52.3-136.1C59.4,111.1,150.5,20,262.8,20s203.5,91.1,203.5,203.5
		c0.1,58.2-24.9,113.7-68.5,152.3"/>
	<path class="st0" d="M155.8,292.9c-38.3-59.1-21.5-138.1,37.5-176.4S331.4,95,369.8,154c31,47.8,26.6,110.3-10.9,153.2"/>
	<polygon class="st1" points="262.8,121.6 70.5,417.3 125.1,493 370.5,493 421.8,436.1 363.2,436.1 350.5,450 144.9,450 
		122.6,418.4 262.8,202.8 356.4,375.5 179.5,375.5 150,418 425.6,418 	"/>
	<path class="st2" d="M512.5,307.3l-11-23h-15c0,0-0.8-2.1-5.8-2.5c0,0-107,0.1-197.6,74.1c0,0,44.6-75.6,179-85.7l-16-10.2
		c0,0-97.2,5.8-172.5,87.3c0,0,49.6-75,139.4-96.7l-12.6-4.5c0,0-84.2,26.4-137.8,97.5C209.2,272.6,125,246.2,125,246.2l-12.6,4.5
		c89.8,21.7,139.4,96.7,139.4,96.7c-75.3-81.5-172.4-87.3-172.4-87.3l-16,10.2c134.4,10,179,85.7,179,85.7
		c-90.6-74-197.6-74.1-197.6-74.1c-5,0.4-5.8,2.5-5.8,2.5h-15l-11,23c0,0,137.5-3.5,221.1,82.2c0,0-0.1,12.8,10.6,13.2s18,0,18,0
		s7.3,0.4,18,0s10.6-13.2,10.6-13.2C375,303.8,512.5,307.3,512.5,307.3z"/>
	<circle class="st2" cx="262.8" cy="280.7" r="26.6"/>
	<text transform="matrix(1 0 0 1 146.93 444.08)" class="st3 st4">SONAPUR, AS</text>
	<text transform="matrix(1 0 0 1 303.67 444.08)" class="st3 st4">S</text>
	<text transform="matrix(1 0 0 1 316.47 444.08)" class="st3 st4">AM</text>
	<path d="M85.5,208.7c-0.6-0.4-1.1-0.8-1.6-1.1c-0.4-0.3-0.8-0.5-1.2-0.7c-0.3-0.2-0.7-0.3-1.1-0.4c-0.3-0.1-0.7-0.2-1-0.2
		c-0.4-0.1-0.8,0-1,0.3c-0.3,0.5-0.4,1-0.4,1.5c-0.8-0.1-1.2-0.1-1.9-0.1c0.3-3.8,0.5-5.6,1-9.4l1.9,0.2c-0.1,0.5,0,0.9,0.1,1.4
		c0.1,0.5,0.3,0.9,0.6,1.3c0.3,0.5,0.7,0.9,1.1,1.3c0.5,0.4,1,0.9,1.6,1.4c2.5,1.9,5.1,3.7,7.8,5.4c7.2-1.7,11.5-2.3,17.7-3.8
		c0.7-0.2,1.4-0.4,2-0.6c0.4-0.2,0.8-0.4,1.2-0.7c0.3-0.2,0.5-0.5,0.7-0.8c0.2-0.3,0.2-0.6,0.3-0.9v-0.1c0.9,0.1,1.3,0.1,2,0.2
		c-0.1,0.6-0.1,0.9-0.2,1.6s-0.2,1.4-0.3,2c-0.1,0.5-0.2,1-0.4,1.5c-0.1,0.4-0.3,0.7-0.6,1.1c-0.2,0.3-0.5,0.5-0.8,0.8
		c-0.3,0.2-0.6,0.4-1,0.6c-0.4,0.2-0.9,0.3-1.3,0.4c-4.3,1.2-7.3,1.8-13,3l2,1.6c4,0.4,6,0.5,9.3,0.8c0.5,0.1,1.1,0.1,1.6,0
		c0.3,0,0.6-0.1,0.9-0.3c0.2-0.1,0.3-0.3,0.4-0.5c0.1-0.2,0.1-0.4,0.1-0.6c0-0.5,0-0.8,0.1-1.3c0.9,0.1,1.3,0.1,2,0.1
		c-0.3,4.1-0.4,6.2-0.4,10.4c-0.7,0-1.1,0-2,0v-1.3c0-0.2,0-0.4-0.1-0.6c-0.1-0.2-0.2-0.4-0.3-0.5c-0.2-0.2-0.5-0.3-0.8-0.4
		c-0.5-0.1-1-0.2-1.5-0.2c-9.4-0.5-18.2-1.3-27.6-1.8c-0.5,0-1,0-1.5,0.1c-0.3,0-0.6,0.2-0.8,0.4c-0.2,0.1-0.3,0.3-0.4,0.6
		c-0.1,0.2-0.1,0.5-0.1,0.7c0,0.6,0,0.9,0,1.5h-2c0-4.9,0.1-7.3,0.4-12.1l2,0.1l-0.1,1.5c0,0.2,0,0.5,0,0.7c0.1,0.2,0.2,0.4,0.3,0.6
		c0.2,0.2,0.5,0.3,0.8,0.4c0.5,0.1,1.1,0.2,1.6,0.3c4.6,0.3,7.6,0.6,13.2,1.1C91.1,212.4,89,211.2,85.5,208.7z"/>
	<path d="M105.2,195.3l4.5,1.7l1.4,0.5c0.4,0.1,0.9,0.2,1.3,0.3c0.3,0.1,0.5,0.1,0.8,0c0.2,0,0.4-0.1,0.6-0.2
		c0.1-0.1,0.3-0.2,0.4-0.4c0.1-0.1,0.2-0.3,0.2-0.5c0.1-0.5,0.1-0.7,0.2-1.2c0.9,0.1,1.3,0.2,2,0.3c-0.6,3-0.8,4.5-1.3,7.5
		c-0.7-0.1-1.1-0.1-2-0.2c0-0.1,0-0.2,0.1-0.4c0-0.2,0-0.5,0-0.7c-0.1-0.3-0.2-0.5-0.4-0.7c-0.3-0.3-0.6-0.5-0.9-0.7
		c-0.5-0.3-1.1-0.5-1.6-0.8c-10.1-3.8-20.4-7.4-30.1-12.3c0.4-1.9,0.6-2.8,1-4.6c10.8-1.2,22,0,32.7,0.5c0.6,0,1.2,0,1.8-0.1
		c0.4,0,0.7-0.1,1.1-0.3c0.2-0.1,0.5-0.3,0.6-0.5c0.1-0.2,0.3-0.4,0.3-0.6l0.2-0.5c0.9,0.2,1.3,0.3,2,0.4c-1.1,3.6-1.6,5.5-2.5,9.2
		l-2-0.3c0.1-0.4,0.2-0.7,0.3-1.1c0-0.1,0-0.3,0-0.4c0-0.2-0.1-0.3-0.2-0.4c-0.1-0.2-0.3-0.3-0.4-0.4c-0.2-0.1-0.5-0.2-0.8-0.3
		c-0.4-0.1-0.7-0.1-1.1-0.1h-1c-2.1,0-3.2,0-5.6-0.1C106,190.9,105.7,192.3,105.2,195.3z M93,187.4l-2.1-0.1l-2.2-0.1h-2.1h-1.8
		l1.5,0.6l1.8,0.8c0.6,0.3,1.3,0.6,2,0.8s1.3,0.6,2,0.8c3.7,1.5,5.8,2.3,9.7,3.8c0.5-2.5,0.8-3.7,1.3-6.2
		C99,187.6,96.9,187.5,93,187.4L93,187.4z"/>
	<path d="M125.7,166.3l-1.9-0.6l0.1-0.3c0.1-0.2,0.2-0.5,0.2-0.8c0-0.2,0-0.4-0.1-0.6c-0.1-0.2-0.3-0.4-0.5-0.6
		c-0.4-0.2-0.8-0.4-1.2-0.6c-9-3.3-17.9-6.7-26.9-10c9.6,5.7,19.3,11.1,28.9,16.7c-0.3,0.7-0.4,1.1-0.7,1.8
		c-11.3-0.7-22.6-2.4-33.9-3.4c9,2.5,18,5.2,27.1,7.8c0.5,0.2,1.1,0.3,1.6,0.3c0.3,0,0.7,0,1-0.2c0.2-0.1,0.5-0.3,0.6-0.5
		c0.2-0.3,0.3-0.5,0.4-0.8v-0.2c0.8,0.2,1.2,0.3,1.9,0.5c-1,2.7-1.4,4-2.2,6.8c-0.7-0.1-1.1-0.2-2-0.4c0.1-0.5,0.2-0.7,0.4-1.2
		c0.1-0.2,0.1-0.4,0.1-0.6c0-0.2-0.1-0.4-0.2-0.5c-0.2-0.2-0.4-0.4-0.7-0.5c-0.4-0.2-0.9-0.4-1.4-0.5c-9.1-2.4-17.6-5-26.7-7.4
		c-0.5-0.1-1-0.2-1.5-0.2c-0.3,0-0.6,0-0.9,0.2c-0.2,0.1-0.4,0.3-0.5,0.4c-0.1,0.2-0.2,0.4-0.3,0.6c-0.2,0.5-0.2,0.8-0.4,1.4l-2-0.4
		c1.1-3.8,1.7-5.7,3-9.4c7.1-0.5,15.5,1.2,26.8,2.9c-9.9-5.4-17.4-9.3-22.8-13.3c1.5-3.6,2.3-5.3,4-8.8c0.7,0.2,1,0.4,1.8,0.7
		c-0.2,0.5-0.4,0.8-0.6,1.3c-0.1,0.2-0.2,0.4-0.2,0.6c0,0.2,0,0.4,0.1,0.6c0.2,0.3,0.4,0.5,0.7,0.6c0.5,0.3,0.9,0.5,1.4,0.7
		c8.7,3.4,16.7,6.7,25.4,10.1c0.5,0.2,1,0.4,1.6,0.5c0.3,0.1,0.6,0.1,0.9,0c0.2,0,0.4-0.1,0.6-0.3c0.1-0.1,0.3-0.3,0.3-0.5l0.5-1.1
		l1.9,0.7C127.9,161.4,127.1,163,125.7,166.3z"/>
	<path d="M128.1,156.5l0.5-1.1c0.1-0.2,0.1-0.3,0.2-0.5c0-0.2,0-0.4-0.1-0.5c-0.2-0.2-0.3-0.4-0.6-0.6c-0.4-0.3-0.8-0.5-1.3-0.7
		c-8.7-3.7-16.8-7.5-25.5-11.2c-0.5-0.2-0.9-0.4-1.4-0.5c-0.3-0.1-0.6-0.1-0.9,0c-0.2,0.1-0.4,0.2-0.6,0.4c-0.1,0.2-0.3,0.3-0.4,0.6
		c-0.3,0.5-0.4,0.8-0.6,1.3c-0.8-0.3-1.2-0.5-1.8-0.7c1.9-3.9,2.9-5.9,5.1-9.7c1.6-2.8,3.2-4.6,5.1-5.3s4.1-0.3,7.1,1.2
		c1.2,0.6,2.3,1.4,3.4,2.2c0.9,0.7,1.6,1.5,2.3,2.4c0.6,0.7,1,1.5,1.4,2.3c0.3,0.6,0.5,1.3,0.6,2c5.3,1.1,8,1.7,12.4,2.5
		c0.7,0.1,1.3,0.2,2,0.2c0.5,0,0.9,0,1.4,0c0.3,0,0.6-0.1,0.9-0.3c0.2-0.1,0.4-0.3,0.6-0.5l0.1-0.1l1.8,0.9l-0.5,0.8
		c-0.4,0.6-0.8,1.2-1.3,1.8c-0.4,0.5-0.8,0.9-1.4,1.2c-0.5,0.3-1,0.5-1.6,0.6c-0.7,0.1-1.5,0.1-2.3,0c-4.3-0.6-7.1-1.3-12.7-2.4
		l-1,1.8c4.4,2.1,6.6,3.1,10,4.7c0.4,0.2,0.9,0.4,1.4,0.5c0.3,0.1,0.6,0.1,0.9,0.1c0.2,0,0.4-0.1,0.5-0.3c0.1-0.1,0.3-0.3,0.4-0.4
		l0.6-1l1.8,0.8c-2,3.3-2.9,5-4.7,8.5C129.3,157,128.9,156.9,128.1,156.5z M115.8,142.9l0.9-1.5c0.3-0.5,0.5-1.2,0.4-1.8
		c-0.1-0.7-0.5-1.3-0.9-1.8c-0.6-0.7-1.4-1.3-2.2-1.8c-1-0.7-2.1-1.3-3.2-1.9c-1-0.5-2.1-1-3.2-1.4c-0.7-0.2-1.5-0.3-2.2-0.3
		c-0.6,0-1.2,0.3-1.6,0.6c-0.5,0.4-0.9,0.9-1.2,1.5l-0.9,1.6C105.9,138.3,109.4,139.9,115.8,142.9L115.8,142.9z"/>
	<path d="M122.2,105c-0.4,0.4-0.5,0.7-0.9,1.1c-0.1,0.2-0.2,0.4-0.3,0.6c-0.1,0.2-0.1,0.4,0,0.6c0.1,0.3,0.3,0.6,0.5,0.8
		c0.4,0.4,0.8,0.7,1.3,1c6.4,4.3,11.6,8,19,13.1c1.3,0.9,2.6,1.9,3.7,3c0.8,0.7,1.4,1.7,1.7,2.7c0.3,0.8,0.3,1.7,0,2.5
		c-0.3,1-0.8,1.9-1.5,2.7c-0.7,0.9-1.4,1.7-2.3,2.4c-0.8,0.6-1.7,1-2.7,1.2c-1.2,0.2-2.4,0.1-3.6-0.3c-1.8-0.6-3.6-1.3-5.2-2.3
		c-7.6-4.4-13-7.5-19.5-11.1c-0.4-0.3-0.9-0.5-1.4-0.6c-0.3-0.1-0.6-0.1-0.9-0.1c-0.2,0-0.4,0.1-0.6,0.3c-0.2,0.1-0.3,0.3-0.4,0.5
		l-0.8,1.2l-1.8-0.9c2.5-3.9,3.8-5.8,6.5-9.6l1.7,1c-0.3,0.4-0.5,0.7-0.8,1.1c-0.1,0.2-0.2,0.4-0.3,0.6c-0.1,0.2-0.1,0.4,0,0.6
		c0.1,0.3,0.3,0.5,0.5,0.7c0.4,0.4,0.8,0.7,1.3,0.9c6.5,3.9,11.9,7.2,19.4,11.8c1.1,0.7,2.3,1.3,3.5,1.7c0.8,0.3,1.6,0.5,2.4,0.5
		c0.6,0,1.2-0.2,1.7-0.5c0.5-0.3,1-0.7,1.3-1.2c0.4-0.4,0.6-1,0.7-1.5c0.1-0.6,0-1.1-0.2-1.7c-0.3-0.7-0.8-1.3-1.4-1.9
		c-0.9-0.8-1.8-1.6-2.8-2.2c-7.4-5-12.8-8.6-19.2-12.9c-0.4-0.3-0.9-0.5-1.3-0.7c-0.3-0.1-0.6-0.2-0.9-0.2c-0.2,0-0.4,0.1-0.6,0.2
		c-0.2,0.1-0.3,0.3-0.5,0.5l-0.8,1.1l-1.7-1.1c2.1-2.8,3.2-4.2,5.4-6.9L122.2,105z"/>
	<path d="M141.5,95.8c1.3,1.1,2.5,2.4,3.6,3.8c1,1.2,1.8,2.6,2.4,4.1c0.5,1.2,0.7,2.6,0.5,3.9c-0.2,1.4-0.9,2.6-1.9,3.6l-0.7,0.7
		l7.1,5.5c0.4,0.3,0.8,0.6,1.2,0.8c0.3,0.1,0.5,0.2,0.8,0.3c0.2,0,0.4,0,0.6-0.1c0.2-0.1,0.3-0.2,0.4-0.3l1.2-1.2l1.5,1.2
		c-2.8,2.8-4.1,4.2-6.7,7.2l-1.6-1.1l0.8-0.9c0.1-0.1,0.2-0.3,0.3-0.5c0.1-0.2,0.1-0.4,0-0.6c-0.1-0.3-0.3-0.5-0.5-0.7
		c-0.4-0.4-0.8-0.7-1.2-1l-22.6-16.7c-0.4-0.3-0.8-0.6-1.3-0.8c-0.3-0.1-0.6-0.2-0.9-0.2c-0.2,0-0.4,0.1-0.6,0.2
		c-0.2,0.1-0.4,0.3-0.5,0.4l-0.9,1.1l-1.6-1.1c2.6-3.2,3.9-4.7,6.7-7.7c0.9-1,1.9-1.9,3.1-2.6c1-0.6,2.1-0.9,3.2-0.9
		c1.2,0,2.4,0.3,3.5,0.9C138.9,93.7,140.3,94.7,141.5,95.8z M142.7,109.6l0.5-0.5c0.5-0.5,0.8-1.1,0.8-1.7c0-0.7-0.2-1.5-0.6-2.1
		c-0.6-0.9-1.2-1.8-2-2.6c-1.1-1.1-2.2-2.1-3.4-3.1c-1-0.8-2-1.6-3.1-2.3c-0.7-0.5-1.5-0.8-2.4-1.1c-0.6-0.2-1.3-0.1-1.9,0.1
		c-0.6,0.2-1.1,0.6-1.6,1.1l-0.9,1L142.7,109.6z"/>
	<path d="M180,100.2c-0.4-0.5-0.7-0.8-1.2-1.5c0.1-0.1,0.1-0.1,0.2-0.1c0.2-0.1,0.4-0.3,0.5-0.5c0.1-0.1,0.2-0.3,0.2-0.5
		c0-0.3-0.1-0.5-0.2-0.7c-0.2-0.4-0.5-0.8-0.8-1.1c-6.5-7.6-13.1-15.1-19.6-22.7c5.9,9.8,12.5,19.2,18.2,29.1l-1.4,1
		c-9.6-6.9-18.8-14.3-28.6-20.9c6.9,6.9,13.8,13.8,20.7,20.7c0.4,0.4,0.8,0.8,1.3,1.1c0.3,0.2,0.6,0.3,0.9,0.4c0.3,0,0.5,0,0.8-0.1
		c0.3-0.1,0.5-0.3,0.7-0.4l0.1-0.1l1.4,1.4c-2.1,1.6-3.1,2.4-5.1,4.1c-0.5-0.5-0.8-0.8-1.4-1.4l0.9-0.7c0.1-0.1,0.3-0.2,0.4-0.4
		c0.1-0.2,0.1-0.3,0.1-0.5c0-0.3-0.2-0.5-0.3-0.7c-0.3-0.4-0.6-0.8-1-1.1c-6.9-6.7-13.8-13.3-20.6-20.1c-0.4-0.4-0.7-0.7-1.2-1
		c-0.3-0.2-0.5-0.3-0.8-0.3c-0.2,0-0.4,0-0.6,0.1c-0.2,0.1-0.4,0.2-0.5,0.4l-1,0.9c-0.6-0.6-0.9-0.9-1.4-1.4c2.8-2.5,4.2-3.7,7-6.1
		c7.9,4.9,15.3,10.9,22.5,16.8c-6.5-9.6-12-17-14.3-23.1c2.9-2.1,4.4-3.1,7.3-5.1c0.4,0.6,0.6,0.9,1.1,1.6l-1.1,0.7
		c-0.2,0.1-0.3,0.3-0.5,0.4c-0.1,0.2-0.2,0.4-0.2,0.6c0,0.3,0.1,0.6,0.3,0.9c0.3,0.5,0.6,0.9,0.9,1.4c6,7.4,12.2,14.7,18.2,22.2
		c0.3,0.4,0.7,0.8,1.1,1.2c0.2,0.2,0.5,0.4,0.8,0.5c0.2,0.1,0.4,0.1,0.6,0.1c0.2,0,0.3-0.1,0.5-0.2c0.4-0.2,0.6-0.3,0.9-0.6
		c0.5,0.7,0.8,1,1.2,1.6C184.1,97.5,182.8,98.4,180,100.2z"/>
	<path d="M192,90.5c1.8-0.9,2.7-1.4,4.4-2.2c0.2-0.1,0.4-0.3,0.4-0.5c0.1-0.3,0.1-0.5,0-0.8c-0.1-0.4-0.2-0.8-0.3-1.1
		c-0.2-0.5-0.4-0.9-0.7-1.4c-0.5-0.9-0.7-1.3-1.2-2.3l1.6-0.8c2.2,3.6,3.2,5.3,4.3,7.5c-4.4,1.9-8.7,4.1-12.9,6.5
		c-0.4-0.6-0.6-0.9-1.1-1.6l0.9-0.5c0.1-0.1,0.3-0.2,0.4-0.3c0.1-0.1,0.2-0.3,0.2-0.5c0-0.3-0.1-0.5-0.2-0.8
		c-0.2-0.4-0.5-0.9-0.8-1.3c-5.8-7.8-11.9-15.3-17.7-23.1c-0.3-0.5-0.7-0.9-1.1-1.3c-0.2-0.2-0.5-0.4-0.8-0.5
		c-0.2-0.1-0.4-0.1-0.6-0.1c-0.2,0.1-0.4,0.2-0.6,0.3l-1.1,0.7c-0.5-0.7-0.8-1-1.1-1.6c4.8-3.1,9.8-6,14.9-8.5
		c1.2,2.1,2.3,3.8,4.7,7.3l-1.8,0.9l-1.6-2.1c-0.5-0.8-1.2-1.5-2-2.1c-0.5-0.4-1.2-0.4-1.7-0.1c-1.8,1-2.7,1.4-4.5,2.5
		c2.4,3.5,4.4,6.2,8.3,11.5c2.4-1.3,3.5-1.9,5.9-3.1l2.2,3.2c-2.3,1.2-3.4,1.7-5.7,3C186.9,83.3,189.3,86.5,192,90.5z"/>
	<path d="M207.7,80.4c0.3,0.5,0.5,1,0.9,1.5c0.2,0.3,0.4,0.5,0.7,0.7c0.2,0.1,0.3,0.2,0.6,0.2c0.2,0,0.3,0,0.5-0.1l1-0.3
		c0.4,0.8,0.6,1.2,0.9,1.9c-3.1,1.1-4.7,1.7-7.8,3c-0.3-0.6-0.5-1-1-1.8l1-0.4c0.2-0.1,0.3-0.2,0.4-0.3c0.1-0.1,0.2-0.3,0.2-0.5
		c0-0.3-0.1-0.6-0.2-0.9c-0.2-0.5-0.4-1-0.7-1.5c-5.3-9.2-10.8-18.2-15.9-27.4l-2.2,1c-0.4,0.2-0.7,0.4-0.9,0.7
		c-0.2,0.3-0.3,0.6-0.4,0.9c0,0.4,0,0.7,0.2,1.1c0.2,0.5,0.4,0.9,0.6,1.4c0.6,1.2,0.9,1.8,1.6,3c-0.7,0.3-1.1,0.5-1.8,0.8
		c-2.4-3.9-3.5-5.7-4.6-8c5.7-3,11.5-5.6,17.4-8c1.2,2.6,2.1,4.5,4.2,8.6l-1.8,0.7l-1.8-3.1c-0.3-0.5-0.6-0.9-0.9-1.3
		c-0.2-0.3-0.5-0.6-0.9-0.8c-0.3-0.2-0.6-0.3-1-0.3c-0.4,0-0.8,0.1-1.1,0.2l-2.2,1C197.4,61.9,202.6,71.1,207.7,80.4z"/>
	<path d="M215,81.1l1-0.3c0.2,0,0.3-0.1,0.4-0.2c0.1-0.1,0.2-0.3,0.2-0.4c0-0.3,0-0.6-0.1-0.9c-0.1-0.5-0.3-1-0.6-1.5
		c-4.1-9-8.5-17.9-12.6-26.9c-0.2-0.5-0.5-1-0.8-1.4c-0.2-0.3-0.4-0.5-0.7-0.7c-0.2-0.1-0.4-0.2-0.6-0.2c-0.2,0-0.4,0-0.6,0.1
		l-1.2,0.5c-0.4-0.8-0.6-1.2-0.9-2c3.7-1.5,5.6-2.2,9.4-3.4c2.8-0.9,5-1,6.8-0.1s3.2,3,4.4,6.3c0.5,1.4,0.9,2.7,1.1,4.2
		c0.2,1.1,0.3,2.3,0.4,3.5c0,0.9-0.1,1.8-0.3,2.7c-0.2,0.7-0.4,1.4-0.7,2c3.2,4.7,4.8,7.1,7.5,11c0.5,0.7,0.9,1.2,1.3,1.7
		c0.3,0.4,0.6,0.7,1,1.1c0.2,0.2,0.5,0.4,0.8,0.5c0.2,0.1,0.5,0.1,0.7,0.1h0.1c0.3,0.9,0.4,1.4,0.7,2.1l-0.8,0.2
		c-0.6,0.1-1.3,0.2-1.9,0.3c-1.1,0.1-2.2-0.3-3-1c-0.6-0.5-1.1-1.1-1.6-1.8c-2.7-3.8-4.4-6.3-7.9-11.2l-1.7,0.5
		c2.1,4.7,3.1,7.1,4.7,10.8c0.2,0.5,0.4,1,0.7,1.4c0.2,0.3,0.4,0.5,0.6,0.7c0.2,0.1,0.3,0.2,0.5,0.2c0.2,0,0.3,0,0.5,0l1-0.3
		c0.4,0.9,0.5,1.3,0.8,2.1c-3.2,0.8-4.8,1.3-8,2.3C215.5,82.4,215.3,82,215,81.1z M213.5,62.3l1.5-0.5c0.6-0.1,1-0.5,1.3-1
		c0.3-0.6,0.4-1.3,0.3-2c-0.1-1-0.3-2-0.6-2.9c-0.3-1.1-0.8-2.4-1.3-3.8c-0.4-1.2-1-2.3-1.6-3.4c-0.4-0.7-0.9-1.4-1.4-1.9
		c-0.4-0.4-1-0.7-1.5-0.8c-0.6-0.1-1.2,0-1.8,0.2l-1.6,0.5C208.8,51.8,210.4,55.5,213.5,62.3z"/>
	<path d="M243.9,56.2c0.7,3.2,1.2,6.4,1.4,9.6c0.2,2.2,0.2,4.5-0.2,6.7c-0.2,1.4-0.8,2.7-1.7,3.8c-0.9,0.8-2,1.4-3.2,1.5
		c-1.3,0.2-2.6,0.1-3.9-0.4c-1.4-0.7-2.6-1.6-3.6-2.9c-1.4-1.8-2.7-3.8-3.6-5.9c-1.4-2.9-2.7-5.9-3.7-9c-1.1-3-1.9-6.1-2.6-9.3
		c-0.5-2.2-0.5-4.4-0.2-6.7c0.3-1.6,1-3,2.2-4.1c1.2-1,2.7-1.7,4.3-2c3.2-0.8,6.7,0.3,8.7,3c1.5,1.9,2.6,4,3.4,6.2
		C242.3,49.9,243.2,53,243.9,56.2z M230,58.6c0.9,3,1.9,5.7,2.7,7.9c0.7,1.8,1.5,3.6,2.4,5.2c0.5,1.1,1.3,2,2.2,2.8
		c0.6,0.5,1.4,0.7,2.2,0.6c0.7-0.1,1.4-0.6,1.7-1.2c0.4-1,0.6-2.1,0.5-3.2c-0.1-1.9-0.3-3.8-0.6-5.6c-0.4-2.3-1-5-1.7-8.1
		s-1.5-5.8-2.2-8.1c-0.6-1.9-1.3-3.6-2.2-5.3c-0.5-1.1-1.3-2-2.3-2.8c-0.8-0.5-1.7-0.7-2.6-0.5c-0.9,0.2-1.7,0.7-2.1,1.5
		c-0.5,1-0.8,2.2-0.7,3.3c0.1,1.9,0.3,3.8,0.8,5.6C228.3,52.9,229.1,55.6,230,58.6L230,58.6z"/>
	<path d="M260.9,45.6c0.1,1.9,0.1,3.7,0,5.6c-0.1,1.7-0.4,3.3-1,4.9c-0.4,1.3-1.1,2.5-2.1,3.4c-1,0.9-2.2,1.4-3.5,1.4l-0.9,0.1
		c0.6,4.1,0.9,6.2,1.5,9.6c0.1,0.6,0.2,1.1,0.4,1.6c0.1,0.3,0.2,0.6,0.4,0.9c0.1,0.2,0.3,0.3,0.5,0.4c0.2,0.1,0.3,0.1,0.5,0.1
		l1.5-0.1c0.2,1,0.2,1.5,0.4,2.3c-3.5,0.1-5.3,0.2-8.8,0.5l-0.5-2.3l1-0.1c0.2,0,0.3-0.1,0.5-0.2c0.2-0.1,0.3-0.3,0.3-0.5
		c0.1-0.3,0.1-0.7,0.1-1c0-0.6-0.1-1.2-0.2-1.8c-1.9-9.9-3.6-19.8-5.4-29.7c-0.1-0.6-0.2-1.1-0.4-1.7c-0.1-0.3-0.3-0.6-0.5-0.9
		c-0.2-0.2-0.4-0.3-0.6-0.3c-0.2,0-0.4,0-0.6,0l-1.3,0.2c-0.2-1-0.3-1.5-0.5-2.3c3.8-0.5,5.7-0.8,9.6-1.1c1.3-0.1,2.6,0,3.9,0.3
		c1.1,0.3,2.1,1,2.9,1.8c0.9,1,1.6,2.2,2,3.5C260.4,42.1,260.7,43.8,260.9,45.6z M252.8,57.2h0.7c0.6,0,1.2-0.3,1.6-0.7
		c0.5-0.6,0.8-1.3,0.9-2c0.2-1.1,0.3-2.3,0.3-3.5c0-1.4-0.1-3.1-0.4-4.9c-0.2-1.4-0.4-2.8-0.7-4.2c-0.2-0.9-0.5-1.8-1-2.7
		c-0.3-0.6-0.8-1.1-1.4-1.4c-0.6-0.3-1.2-0.4-1.8-0.3l-1.2,0.1C250.8,43.8,251.5,48.6,252.8,57.2z"/>
	<path d="M282.5,56c-0.2,3.3-0.6,6.5-1.2,9.7c-0.4,2.2-1,4.4-1.9,6.5c-0.5,1.3-1.4,2.5-2.5,3.4c-1,0.7-2.2,1-3.4,0.9
		c-1.3-0.1-2.6-0.5-3.7-1.3c-1.3-1-2.3-2.2-2.9-3.7c-1-2.2-1.7-4.4-2.1-6.8c-0.6-3.3-1.1-6.5-1.3-9.9c-0.3-3.3-0.3-6.6-0.1-9.8
		c0.1-2.3,0.6-4.6,1.4-6.7c0.6-1.5,1.7-2.7,3-3.6c1.4-0.8,3.1-1.1,4.7-1c3.5,0,6.7,2.1,8.1,5.3c1,2.2,1.6,4.6,1.8,7
		C282.8,49.4,282.8,52.7,282.5,56z M268.2,55c0.1,3.2,0.3,6,0.6,8.4c0.2,1.9,0.5,3.9,1,5.8c0.3,1.2,0.8,2.3,1.5,3.3
		c0.5,0.7,1.2,1.1,2,1.1c0.7,0.1,1.5-0.3,1.9-0.9c0.7-0.9,1.1-2,1.3-3.2c0.4-1.9,0.7-3.8,0.8-5.7c0.2-2.4,0.4-5.2,0.5-8.4
		s0.1-6,0-8.5c-0.1-2-0.3-3.9-0.8-5.8c-0.3-1.2-0.8-2.4-1.7-3.3c-0.7-0.7-1.6-1.1-2.5-1.2c-0.9-0.1-1.8,0.2-2.5,0.9
		c-0.8,0.9-1.3,2-1.5,3.2c-0.4,1.9-0.6,3.8-0.7,5.8C268,49,268.1,51.8,268.2,55L268.2,55z"/>
	<path d="M283,77c0-0.9,0-1.3,0-2.4l1,0.1c0.2,0,0.3,0,0.5,0c0.2-0.1,0.3-0.2,0.4-0.4c0.2-0.3,0.3-0.7,0.3-1
		c0.1-0.6,0.2-1.2,0.2-1.8c0.8-10,2-20,2.8-30c0.1-0.6,0.1-1.2,0-1.8c0-0.3-0.1-0.7-0.3-1c-0.1-0.2-0.3-0.4-0.5-0.5
		c-0.2-0.1-0.4-0.2-0.6-0.2l-1.3-0.2c0-1,0-1.5,0-2.4c4.5,0.6,6.7,0.9,11.2,1.8c0,0.9-0.1,1.3-0.2,2.3l-1.4-0.3c-0.2,0-0.4,0-0.6,0
		c-0.2,0-0.4,0.1-0.6,0.3c-0.2,0.3-0.3,0.5-0.4,0.9c-0.2,0.5-0.3,1.1-0.3,1.7c-1.4,11-3,22-4.1,33c1.8,0.3,2.7,0.5,4.5,0.8
		c0.6,0.1,1-0.1,1.5-0.8c0.6-1,1-2.2,1.2-3.3c0.5-1.7,0.7-2.5,1.2-4.3l1.5,0.3c-0.9,3.8-1.7,7.7-2.2,11.6
		C292.3,78.4,287.7,77.6,283,77z"/>
	<path d="M298,79.7c0.1-0.8,0.1-1.3,0.3-2.3l1,0.2c0.2,0,0.3,0,0.5,0c0.2,0,0.4-0.2,0.5-0.3c0.2-0.3,0.3-0.6,0.4-0.9
		c0.2-0.6,0.3-1.1,0.5-1.7c2.2-9.7,4.8-19.3,7-28.9c0.1-0.6,0.2-1.2,0.2-1.8c0-0.4,0-0.7-0.2-1c-0.1-0.2-0.2-0.4-0.4-0.6
		c-0.2-0.1-0.4-0.2-0.6-0.3l-1.4-0.4c0.2-1,0.2-1.5,0.3-2.3c4.5,1.2,6.8,1.9,11.4,3.4c-0.2,0.8-0.3,1.3-0.5,2.2l-1.4-0.5
		c-0.2-0.1-0.4-0.1-0.7-0.1c-0.2,0-0.4,0.1-0.6,0.2c-0.2,0.2-0.4,0.5-0.6,0.8c-0.2,0.5-0.4,1.1-0.6,1.7c-2.6,9.5-5.6,19-8.2,28.5
		c-0.2,0.6-0.3,1.2-0.3,1.7c-0.1,0.3-0.1,0.7,0,1c0,0.2,0.1,0.4,0.3,0.5c0.1,0.1,0.3,0.2,0.5,0.2l1,0.3c-0.2,0.9-0.3,1.4-0.5,2.2
		C302.8,80.9,301.2,80.5,298,79.7z"/>
	<path d="M317.2,80c-0.2,0.5-0.4,1.1-0.6,1.6c-0.1,0.3-0.1,0.7-0.1,1c0,0.2,0.1,0.4,0.2,0.5c0.1,0.1,0.3,0.2,0.4,0.3l1,0.4
		c-0.4,0.9-0.5,1.3-0.8,2c-3.1-1.2-4.6-1.8-7.8-2.8c0.2-0.8,0.3-1.2,0.6-2.1l1,0.3c0.2,0.1,0.3,0.1,0.5,0.1c0.2,0,0.4-0.1,0.5-0.3
		c0.2-0.2,0.4-0.5,0.5-0.8c0.3-0.5,0.5-1.1,0.7-1.6c3.9-10,8.1-20,11.7-30.1l-2.7-1c-0.4-0.2-0.8-0.2-1.3-0.2c-0.4,0-0.7,0.1-1,0.4
		c-0.3,0.2-0.5,0.5-0.7,0.9c-0.3,0.5-0.5,1-0.7,1.5c-0.5,1.3-0.8,1.9-1.3,3.3c-0.8-0.3-1.2-0.4-2-0.7c1.5-4.5,2.1-6.5,2.8-9.5
		c7.1,2.4,14,5.3,20.6,8.7c-1.2,2.9-2.6,5.8-4.1,8.6l-2-1c0.6-1.4,0.9-2,1.4-3.3c0.2-0.5,0.4-1,0.5-1.5c0.1-0.4,0.1-0.8,0-1.2
		c-0.1-0.4-0.3-0.7-0.5-1c-0.3-0.3-0.7-0.6-1.1-0.8c-1-0.5-1.6-0.7-2.6-1.2C326.2,60.5,321.5,70.2,317.2,80z"/>
	<path d="M329.7,78.2c-1.4,1.7-2,2.5-3.3,4c-0.3,0.4-0.6,0.8-1,1.2c-0.3,0.4-0.5,0.8-0.8,1.2c-0.1,0.2-0.2,0.5-0.3,0.8
		c0,0.2,0,0.4,0,0.6c0,0.2,0.1,0.3,0.2,0.4c0.1,0.1,0.2,0.2,0.3,0.3l0.9,0.4c-0.4,0.8-0.6,1.2-1,1.8c-2.3-1-3.4-1.5-5.7-2.5
		c0.3-0.7,0.4-1.1,0.8-1.9l0.3,0.1c0.2,0.1,0.4,0.1,0.6,0.1c0.2,0,0.5-0.1,0.7-0.2c0.3-0.2,0.6-0.5,0.9-0.8c0.3-0.3,0.7-0.8,1.2-1.5
		c7.1-9.2,14.6-18.4,23.4-26.1c1.8,1,2.7,1.5,4.5,2.6c-2.9,10.7-9.6,20.6-15,30.1c-0.3,0.5-0.5,1-0.7,1.5c-0.1,0.3-0.2,0.7-0.2,1
		c0,0.2,0,0.4,0.1,0.6c0.1,0.2,0.2,0.3,0.4,0.4l0.4,0.2c-0.5,0.7-0.8,1-1.2,1.6c-2.8-1.6-4.2-2.3-7.1-3.7c0.4-0.6,0.6-0.9,1.1-1.7
		l0.9,0.4c0.1,0.1,0.2,0.1,0.4,0.1c0.2,0,0.3,0,0.5-0.1c0.2-0.1,0.4-0.2,0.5-0.3c0.2-0.2,0.4-0.4,0.6-0.6c0.2-0.3,0.4-0.7,0.6-1
		c0.2-0.3,0.3-0.6,0.5-0.9c0.9-1.9,1.5-2.9,2.6-5.1C333.3,80,332.1,79.4,329.7,78.2z M342.2,68.4l0.9-2c0.3-0.7,0.6-1.4,1-2.1
		s0.6-1.4,0.9-2s0.5-1.2,0.8-1.8l-1.2,1.2l-1.5,1.5l-1.6,1.7c-0.6,0.6-1.1,1.2-1.6,1.7c-3,3.2-4.6,5-7.5,8.4
		c2.1,1.1,3.2,1.6,5.3,2.8C339.5,74.2,340.5,72.2,342.2,68.4z"/>
	<path d="M347.2,101.8c2.9-10,7.9-19.7,11.8-29.3c-6.2,7.4-11.4,13.4-16.9,20.1c-0.4,0.4-0.7,0.8-1,1.3c-0.2,0.3-0.3,0.5-0.3,0.8
		c0,0.2,0,0.4,0.1,0.5c0.1,0.1,0.2,0.2,0.4,0.3l0.9,0.6c-0.6,0.7-0.8,1-1.2,1.5c-2.2-1.4-3.3-2.1-5.5-3.4c0.4-0.6,0.6-0.9,1.2-1.6
		l0.9,0.5c0.1,0.1,0.3,0.2,0.5,0.2c0.2,0,0.4,0,0.6-0.1c0.3-0.1,0.6-0.3,0.8-0.5c0.4-0.4,0.8-0.8,1.1-1.2
		c6.1-7.4,12.3-14.8,18.5-22.3c0.3-0.4,0.6-0.8,0.9-1.3c0.1-0.3,0.2-0.5,0.3-0.8c0-0.2,0-0.4-0.2-0.6c-0.1-0.2-0.2-0.3-0.4-0.4
		l-1-0.7c0.5-0.7,0.8-1,1.2-1.6c2.1,1.4,3.2,2.2,5.2,3.8c-1.8,9.2-6.6,18.6-10.7,27c6.1-6.6,10.6-11.3,15.7-16.9
		c0.4-0.4,0.7-0.8,0.9-1.2c0.2-0.2,0.3-0.5,0.3-0.8c0-0.2,0-0.4-0.1-0.6c-0.1-0.2-0.2-0.3-0.4-0.4l-1-0.8l1.4-1.5c2.4,2,3.6,3,6,5.1
		l-1.3,1.4l-1-0.8c-0.1-0.1-0.3-0.2-0.5-0.3c-0.2-0.1-0.4-0.1-0.6,0c-0.3,0.1-0.6,0.2-0.8,0.4c-0.4,0.3-0.8,0.7-1.2,1.1
		c-7.5,8-15.1,15.9-22.5,23.9C348.4,102.7,348,102.4,347.2,101.8z"/>
	<path d="M366,114.3c0.4,0.4,0.9,0.8,1.5,1c0.6,0.2,1.1,0.3,1.7,0.4c0.6,0,1.2,0,1.9-0.1c0.6-0.1,1.3-0.3,1.9-0.5
		c-0.1,0.3-0.3,0.6-0.5,0.8c-0.3,0.3-0.5,0.6-0.9,0.9c-0.5,0.4-1.1,0.8-1.8,1c-0.6,0.3-1.3,0.4-2,0.3c-0.8-0.1-1.5-0.3-2.1-0.6
		c-0.9-0.5-1.7-1-2.3-1.7c-1-0.9-1.8-2-2.3-3.3c-0.4-1.3-0.4-2.7,0-3.9c0.7-1.9,1.7-3.7,3-5.2c1.9-2.4,3.9-4.6,6.1-6.6
		c2.2-2.1,4.5-4,7-5.8c1.7-1.3,3.7-2.2,5.8-2.7c1.5-0.4,3.1-0.3,4.6,0.3c1.5,0.6,2.8,1.6,3.9,2.9c0.7,0.8,1.4,1.6,1.9,2.6
		c0.4,0.7,0.7,1.4,0.9,2.2c0.1,0.6,0.1,1.3-0.2,1.9c-0.3,0.6-0.7,1.2-1.2,1.6c-0.4,0.4-0.9,0.6-1.4,0.9c-0.5,0.2-1,0.3-1.6,0.3
		c-0.5,0-1.1-0.1-1.5-0.3c-0.5-0.2-1-0.6-1.4-1c0.7-0.6,1.3-1.2,1.9-1.8c0.5-0.5,0.9-1.2,1.2-1.8c0.3-0.5,0.4-1.1,0.4-1.7
		c-0.1-0.6-0.3-1.1-0.7-1.5c-0.6-0.7-1.4-1.2-2.3-1.3c-1.1-0.1-2.2,0.1-3.1,0.7c-1.6,0.8-3,1.7-4.4,2.8c-1.7,1.3-3.7,3.1-5.9,5
		s-4,3.8-5.4,5.3c-1.1,1.2-2.1,2.5-2.9,3.9c-0.5,0.9-0.7,1.9-0.6,2.8C364.9,112.8,365.3,113.7,366,114.3z"/>
	<path d="M396,126c-2.4,1.6-5,2.9-7.6,4.1c-1.9,0.8-3.8,1.4-5.9,1.6c-1.4,0.1-2.9-0.1-4.2-0.8c-1.2-0.6-2.3-1.5-3.2-2.6
		c-0.9-1-1.6-2.2-2-3.5c-0.3-1.3-0.2-2.7,0.4-3.9c0.8-1.8,2-3.5,3.4-4.9c2-2.1,4.2-4.1,6.5-5.9c2.3-1.9,4.7-3.5,7.3-5
		c1.8-1,3.8-1.7,5.8-2c1.5-0.2,3.1,0.1,4.4,0.9c1.4,0.9,2.7,2,3.6,3.4c1,1.3,1.7,2.7,2.1,4.3c0.4,1.5,0.2,3-0.4,4.4
		c-0.8,1.8-2,3.5-3.5,4.8C400.7,122.7,398.4,124.5,396,126z M386.6,113.8c-2.3,1.7-4.2,3.3-5.8,4.7c-1.3,1.1-2.4,2.3-3.4,3.6
		c-0.6,0.8-1,1.7-1.2,2.7c-0.1,0.8,0.2,1.6,0.7,2.2c0.5,0.6,1.2,1.1,2.1,1.2c1,0.1,2.1,0,3.1-0.3c1.6-0.6,3.1-1.3,4.6-2.1
		c1.8-1,4-2.3,6.3-3.9s4.4-3.1,6-4.4c1.3-1,2.5-2.2,3.5-3.5c0.7-0.8,1.1-1.8,1.2-2.9c0-0.9-0.3-1.8-0.9-2.5
		c-0.5-0.8-1.3-1.3-2.2-1.6c-1.1-0.2-2.2-0.1-3.2,0.3c-1.6,0.6-3.2,1.3-4.6,2.3C391,110.6,388.9,112.1,386.6,113.8z"/>
	<path d="M382.2,136.8l1.5-0.9l0.7,0.9c0.1,0.2,0.3,0.3,0.4,0.4c0.2,0.1,0.4,0.2,0.6,0.2c0.3,0,0.6,0,0.9-0.1
		c0.5-0.2,0.9-0.4,1.3-0.7c7.5-4.5,14.6-8.9,22.2-13.4c0.4-0.3,0.9-0.5,1.2-0.9c0.2-0.2,0.4-0.4,0.5-0.7c0.1-0.2,0.1-0.4,0-0.6
		c-0.1-0.2-0.2-0.4-0.3-0.6l-0.8-1.2l1.5-1c2.5,3.8,3.8,5.8,6.1,9.8l-1.6,0.9l-0.7-1.2c-0.1-0.2-0.3-0.4-0.4-0.5
		c-0.2-0.2-0.4-0.3-0.6-0.3c-0.3,0-0.6,0-0.8,0.1c-0.5,0.1-0.9,0.3-1.3,0.6c-8.2,4.7-16.4,9.4-24.7,14.1c1.2,1.8,1.7,2.6,2.8,4.4
		c0.3,0.6,0.9,0.9,1.6,0.9c1,0,2.1-0.2,3-0.6c1.4-0.5,2.1-0.8,3.7-1.3c0.3,0.6,0.5,0.9,0.8,1.4c-4.3,2.1-6.4,3-8.8,4.1
		C388.4,145.7,385.4,141.1,382.2,136.8z"/>
	<path d="M391.8,151.6l1.6-0.8c0.2,0.4,0.4,0.6,0.6,1c0.1,0.2,0.2,0.3,0.4,0.5c0.1,0.1,0.3,0.2,0.5,0.3c0.3,0,0.6,0,0.9-0.1
		c0.5-0.1,0.9-0.3,1.4-0.5c7.8-3.6,15.3-7.2,23.2-10.9c0.5-0.2,0.9-0.4,1.3-0.7c0.2-0.2,0.4-0.4,0.5-0.6c0.1-0.2,0.1-0.4,0.1-0.6
		c-0.1-0.2-0.1-0.4-0.2-0.6l-0.7-1.2l1.6-0.8c2.2,4.1,3.3,6.2,5.3,10.5l-1.7,0.7l-0.6-1.3c-0.1-0.2-0.2-0.4-0.4-0.6
		c-0.1-0.2-0.3-0.3-0.5-0.4c-0.3-0.1-0.6-0.1-0.8,0c-0.5,0.1-0.9,0.2-1.3,0.4c-8.6,3.8-17.1,7.6-25.8,11.3c1,1.9,1.4,2.9,2.4,4.8
		c0.3,0.6,0.8,1,1.5,1.1c1,0.1,2.1,0,3-0.3c1.4-0.3,2.2-0.5,3.8-0.9c0.3,0.6,0.4,0.9,0.7,1.6c-4.5,1.6-6.6,2.3-9.2,3.1
		C397,161.3,394.6,156.3,391.8,151.6z"/>
	<path d="M404.5,173.7c0.8,2.2,1.2,3.3,1.9,5.5c0.1,0.3,0.2,0.5,0.5,0.7c0.2,0.2,0.5,0.3,0.8,0.4c0.4,0.1,0.7,0.1,1.1,0.1
		c0.5,0,1-0.1,1.4-0.1l2.3-0.4c0.2,0.8,0.4,1.2,0.6,2c-3.7,0.9-5.4,1.2-7.6,1.6c-1.6-5.4-3.5-10.7-5.7-15.8l1.7-0.6
		c0.2,0.4,0.3,0.7,0.5,1.1c0.1,0.2,0.2,0.4,0.3,0.5c0.1,0.2,0.3,0.3,0.5,0.4c0.3,0.1,0.5,0.1,0.8,0.1c0.4-0.1,0.9-0.2,1.3-0.3
		c8.2-2.7,16-5.6,24.4-8.5c0.5-0.1,0.9-0.3,1.4-0.6c0.2-0.1,0.5-0.3,0.6-0.6c0.1-0.2,0.2-0.4,0.1-0.6c0-0.2-0.1-0.5-0.2-0.7
		l-0.6-1.3l1.7-0.6c2.5,5.9,4.8,11.8,6.7,17.9c-2.2,0.5-3.9,1-7.5,2c-0.3-0.9-0.4-1.3-0.7-2.2l2.2-0.8c0.8-0.2,1.6-0.7,2.2-1.2
		c0.4-0.5,0.5-1.1,0.3-1.7c-0.8-2.2-1.1-3.3-2-5.4c-3.7,1.1-6.6,2-12,3.8c1.1,2.9,1.6,4.3,2.5,7.2l-3.3,0.9
		c-0.9-2.9-1.4-4.3-2.5-7.1C412,171.4,408.6,172.5,404.5,173.7z"/>
	<path d="M408.3,195.9c-0.4-1.6-0.4-3.2-0.2-4.7c0.3-1.4,1-2.8,2-3.8c1.4-1.4,3.1-2.5,4.9-3.2c2.6-1.1,5.3-2,8-2.7
		c2.7-0.7,5.5-1.1,8.4-1.3c2.1-0.1,4.2,0.2,6.2,1c1.6,0.7,3,1.9,3.9,3.4c1.1,1.6,1.8,3.4,2.2,5.3c0.3,1.2,0.5,2.5,0.6,3.7
		c0.1,0.9,0,1.9-0.3,2.8c-0.2,0.7-0.5,1.3-1.1,1.8c-0.5,0.4-1.2,0.7-1.9,0.8c-0.5,0.1-1.1,0-1.6-0.1c-0.5-0.1-1.1-0.3-1.5-0.6
		c-0.5-0.3-0.9-0.7-1.2-1.2c-0.4-0.5-0.6-1.1-0.7-1.8c0.9-0.1,1.9-0.4,2.7-0.7c0.7-0.2,1.3-0.6,1.8-1.1c0.4-0.4,0.7-0.9,0.9-1.5
		c0.2-0.6,0.2-1.3,0-1.9c-0.2-1.1-0.8-2.2-1.6-3c-0.9-0.8-1.9-1.4-3.1-1.6c-1.7-0.3-3.4-0.3-5.1-0.1c-2.4,0.3-4.9,0.7-7.2,1.2
		c-2.4,0.5-4.7,1.2-7,1.9c-1.6,0.5-3.1,1.2-4.5,2.1c-0.9,0.6-1.7,1.4-2.1,2.4c-0.4,1-0.4,2-0.2,3c0.1,0.4,0.2,0.7,0.3,1.1
		c0.1,0.3,0.2,0.7,0.4,1c2.4-0.3,3.8-0.6,7-1.1c1.1-0.1,2.1-0.5,2.9-1.1c0.5-0.4,0.7-1.1,0.5-1.8c0-0.2,0-0.2-0.1-0.4l3-0.6
		c0.9,3.9,1.2,5.9,1.9,9.9l-3.1,0.4c0-0.2,0-0.2-0.1-0.4c0-0.3-0.2-0.6-0.3-0.8c-0.2-0.2-0.5-0.4-0.8-0.5c-0.4-0.1-0.9-0.2-1.4-0.1
		c-0.7,0-1.3,0.1-2,0.2c-3.5,0.5-5.2,0.8-7.7,1c-0.8-1-1.5-2.1-2-3.3C409,198.3,408.6,197.1,408.3,195.9z"/>
	<path d="M413.4,213.5c0.2,2.4,0.3,3.6,0.4,6.1c0,0.3,0.1,0.6,0.3,0.8c0.2,0.2,0.4,0.4,0.7,0.5c0.4,0.2,0.7,0.3,1.1,0.3
		c0.5,0.1,1,0.1,1.5,0.1l2.5,0.1c0,0.9,0,1.3,0,2.2c-4,0.1-5.9,0.1-8.3,0.1c0.1-5.9-0.3-11.7-1.2-17.5c0.7,0,1.1-0.1,1.9-0.2
		c0.1,0.5,0.1,0.8,0.2,1.2c0,0.2,0.1,0.4,0.1,0.6c0.1,0.2,0.2,0.3,0.4,0.4c0.2,0.1,0.5,0.2,0.8,0.3c0.5,0.1,1,0.1,1.4,0
		c9-0.9,17.5-2.2,26.6-3.2c0.5,0,1-0.1,1.5-0.3c0.3-0.1,0.6-0.2,0.8-0.4c0.2-0.2,0.2-0.4,0.3-0.6c0-0.2,0-0.5,0-0.7
		c-0.1-0.6-0.1-0.9-0.2-1.4c0.8-0.1,1.2-0.1,1.9-0.2c1.2,6.4,2,12.8,2.5,19.2c-2.5,0.1-4.3,0.2-8.3,0.5c0-1-0.1-1.4-0.2-2.4l2.5-0.3
		c0.9-0.1,1.8-0.3,2.6-0.8c0.5-0.3,0.8-1,0.7-1.6c-0.2-2.3-0.4-3.5-0.7-5.8c-4.1,0.3-7.2,0.6-13.1,1.2c0.4,3.1,0.5,4.6,0.7,7.8
		l-3.6,0.2c-0.2-3.1-0.3-4.6-0.6-7.6C421.6,212.7,418,213.1,413.4,213.5z"/>
</g>
</svg>
